<?xml version="1.0" encoding="UTF-8"?>
<svg xmlns="http://www.w3.org/2000/svg" xmlns:xlink="http://www.w3.org/1999/xlink" width="648.117pt" height="437.8242pt" viewBox="0 0 648.117 437.8242">
<defs>
<g>
<g id="glyph-0-0">
<path d="M 14.6875 -2.140625 L 15.28125 0 L 16.734375 0 L 16.734375 -9.03125 L 9.21875 -9.03125 L 9.21875 -7.109375 L 14.6875 -7.109375 C 14.71875 -6.316406 14.613281 -5.582031 14.375 -4.90625 C 14.132812 -4.226562 13.773438 -3.632812 13.296875 -3.125 C 12.828125 -2.625 12.25 -2.226562 11.5625 -1.9375 C 10.875 -1.65625 10.082031 -1.515625 9.1875 -1.515625 C 8.226562 -1.515625 7.382812 -1.703125 6.65625 -2.078125 C 5.925781 -2.453125 5.3125 -2.953125 4.8125 -3.578125 C 4.320312 -4.210938 3.945312 -4.941406 3.6875 -5.765625 C 3.4375 -6.597656 3.3125 -7.460938 3.3125 -8.359375 C 3.3125 -9.265625 3.421875 -10.15625 3.640625 -11.03125 C 3.867188 -11.90625 4.21875 -12.679688 4.6875 -13.359375 C 5.164062 -14.035156 5.773438 -14.582031 6.515625 -15 C 7.253906 -15.414062 8.144531 -15.625 9.1875 -15.625 C 9.832031 -15.625 10.4375 -15.546875 11 -15.390625 C 11.570312 -15.242188 12.082031 -15.015625 12.53125 -14.703125 C 12.976562 -14.398438 13.351562 -14.015625 13.65625 -13.546875 C 13.957031 -13.078125 14.164062 -12.515625 14.28125 -11.859375 L 16.5625 -11.859375 C 16.394531 -12.867188 16.09375 -13.726562 15.65625 -14.4375 C 15.21875 -15.144531 14.675781 -15.726562 14.03125 -16.1875 C 13.382812 -16.65625 12.644531 -17 11.8125 -17.21875 C 10.988281 -17.4375 10.113281 -17.546875 9.1875 -17.546875 C 7.832031 -17.546875 6.644531 -17.289062 5.625 -16.78125 C 4.613281 -16.28125 3.765625 -15.601562 3.078125 -14.75 C 2.398438 -13.90625 1.890625 -12.921875 1.546875 -11.796875 C 1.203125 -10.671875 1.03125 -9.484375 1.03125 -8.234375 C 1.03125 -7.109375 1.210938 -6.023438 1.578125 -4.984375 C 1.953125 -3.953125 2.488281 -3.035156 3.1875 -2.234375 C 3.894531 -1.429688 4.75 -0.789062 5.75 -0.3125 C 6.757812 0.152344 7.90625 0.390625 9.1875 0.390625 C 10.195312 0.390625 11.195312 0.191406 12.1875 -0.203125 C 13.1875 -0.597656 14.019531 -1.242188 14.6875 -2.140625 Z M 14.6875 -2.140625 "/>
</g>
<g id="glyph-0-1">
<path d="M 11.8125 0 L 11.8125 -12.40625 L 9.765625 -12.40625 L 9.765625 -5.40625 C 9.765625 -4.84375 9.6875 -4.320312 9.53125 -3.84375 C 9.382812 -3.375 9.160156 -2.960938 8.859375 -2.609375 C 8.554688 -2.265625 8.175781 -1.992188 7.71875 -1.796875 C 7.257812 -1.609375 6.71875 -1.515625 6.09375 -1.515625 C 5.3125 -1.515625 4.695312 -1.738281 4.25 -2.1875 C 3.800781 -2.632812 3.578125 -3.242188 3.578125 -4.015625 L 3.578125 -12.40625 L 1.53125 -12.40625 L 1.53125 -4.25 C 1.53125 -3.570312 1.597656 -2.957031 1.734375 -2.40625 C 1.867188 -1.851562 2.101562 -1.378906 2.4375 -0.984375 C 2.78125 -0.585938 3.222656 -0.28125 3.765625 -0.0625 C 4.304688 0.15625 4.988281 0.265625 5.8125 0.265625 C 6.71875 0.265625 7.503906 0.0859375 8.171875 -0.265625 C 8.847656 -0.628906 9.40625 -1.195312 9.84375 -1.96875 L 9.890625 -1.96875 L 9.890625 0 Z M 11.8125 0 "/>
</g>
<g id="glyph-0-2">
<path d="M 10.15625 -7.390625 L 3.03125 -7.390625 C 3.0625 -7.867188 3.160156 -8.320312 3.328125 -8.75 C 3.503906 -9.175781 3.742188 -9.546875 4.046875 -9.859375 C 4.359375 -10.179688 4.722656 -10.429688 5.140625 -10.609375 C 5.566406 -10.796875 6.046875 -10.890625 6.578125 -10.890625 C 7.085938 -10.890625 7.550781 -10.796875 7.96875 -10.609375 C 8.394531 -10.429688 8.765625 -10.1875 9.078125 -9.875 C 9.390625 -9.5625 9.640625 -9.1875 9.828125 -8.75 C 10.015625 -8.320312 10.125 -7.867188 10.15625 -7.390625 Z M 12.125 -3.9375 L 10.109375 -3.9375 C 9.929688 -3.125 9.566406 -2.515625 9.015625 -2.109375 C 8.460938 -1.710938 7.753906 -1.515625 6.890625 -1.515625 C 6.210938 -1.515625 5.625 -1.625 5.125 -1.84375 C 4.632812 -2.070312 4.226562 -2.375 3.90625 -2.75 C 3.59375 -3.125 3.363281 -3.554688 3.21875 -4.046875 C 3.070312 -4.535156 3.007812 -5.050781 3.03125 -5.59375 L 12.3125 -5.59375 C 12.34375 -6.34375 12.273438 -7.132812 12.109375 -7.96875 C 11.941406 -8.800781 11.632812 -9.566406 11.1875 -10.265625 C 10.75 -10.972656 10.164062 -11.554688 9.4375 -12.015625 C 8.71875 -12.472656 7.804688 -12.703125 6.703125 -12.703125 C 5.847656 -12.703125 5.0625 -12.539062 4.34375 -12.21875 C 3.632812 -11.894531 3.019531 -11.445312 2.5 -10.875 C 1.988281 -10.300781 1.585938 -9.617188 1.296875 -8.828125 C 1.003906 -8.046875 0.859375 -7.179688 0.859375 -6.234375 C 0.890625 -5.296875 1.03125 -4.425781 1.28125 -3.625 C 1.53125 -2.820312 1.898438 -2.132812 2.390625 -1.5625 C 2.890625 -0.988281 3.503906 -0.539062 4.234375 -0.21875 C 4.960938 0.101562 5.820312 0.265625 6.8125 0.265625 C 8.21875 0.265625 9.382812 -0.0820312 10.3125 -0.78125 C 11.25 -1.488281 11.851562 -2.539062 12.125 -3.9375 Z M 12.125 -3.9375 "/>
</g>
<g id="glyph-0-3">
<path d="M 2.78125 -3.90625 L 0.75 -3.90625 C 0.78125 -3.144531 0.9375 -2.492188 1.21875 -1.953125 C 1.507812 -1.421875 1.894531 -0.988281 2.375 -0.65625 C 2.851562 -0.332031 3.40625 -0.0976562 4.03125 0.046875 C 4.65625 0.191406 5.3125 0.265625 6 0.265625 C 6.625 0.265625 7.25 0.203125 7.875 0.078125 C 8.507812 -0.0351562 9.078125 -0.242188 9.578125 -0.546875 C 10.085938 -0.859375 10.5 -1.257812 10.8125 -1.75 C 11.125 -2.25 11.28125 -2.875 11.28125 -3.625 C 11.28125 -4.21875 11.160156 -4.710938 10.921875 -5.109375 C 10.691406 -5.515625 10.390625 -5.847656 10.015625 -6.109375 C 9.640625 -6.367188 9.207031 -6.578125 8.71875 -6.734375 C 8.226562 -6.898438 7.726562 -7.039062 7.21875 -7.15625 C 6.738281 -7.257812 6.257812 -7.363281 5.78125 -7.46875 C 5.300781 -7.570312 4.867188 -7.703125 4.484375 -7.859375 C 4.097656 -8.015625 3.78125 -8.207031 3.53125 -8.4375 C 3.289062 -8.664062 3.171875 -8.957031 3.171875 -9.3125 C 3.171875 -9.632812 3.25 -9.894531 3.40625 -10.09375 C 3.5625 -10.289062 3.769531 -10.445312 4.03125 -10.5625 C 4.289062 -10.6875 4.578125 -10.769531 4.890625 -10.8125 C 5.203125 -10.863281 5.507812 -10.890625 5.8125 -10.890625 C 6.144531 -10.890625 6.472656 -10.851562 6.796875 -10.78125 C 7.128906 -10.71875 7.429688 -10.601562 7.703125 -10.4375 C 7.972656 -10.28125 8.195312 -10.066406 8.375 -9.796875 C 8.550781 -9.535156 8.65625 -9.207031 8.6875 -8.8125 L 10.734375 -8.8125 C 10.679688 -9.5625 10.519531 -10.1875 10.25 -10.6875 C 9.976562 -11.195312 9.613281 -11.597656 9.15625 -11.890625 C 8.695312 -12.191406 8.171875 -12.398438 7.578125 -12.515625 C 6.992188 -12.640625 6.347656 -12.703125 5.640625 -12.703125 C 5.097656 -12.703125 4.550781 -12.628906 4 -12.484375 C 3.445312 -12.347656 2.945312 -12.140625 2.5 -11.859375 C 2.0625 -11.585938 1.703125 -11.226562 1.421875 -10.78125 C 1.148438 -10.332031 1.015625 -9.796875 1.015625 -9.171875 C 1.015625 -8.367188 1.210938 -7.742188 1.609375 -7.296875 C 2.003906 -6.847656 2.503906 -6.5 3.109375 -6.25 C 3.710938 -6 4.363281 -5.804688 5.0625 -5.671875 C 5.769531 -5.535156 6.421875 -5.382812 7.015625 -5.21875 C 7.617188 -5.050781 8.117188 -4.832031 8.515625 -4.5625 C 8.921875 -4.289062 9.125 -3.890625 9.125 -3.359375 C 9.125 -2.972656 9.023438 -2.65625 8.828125 -2.40625 C 8.640625 -2.164062 8.394531 -1.976562 8.09375 -1.84375 C 7.800781 -1.71875 7.476562 -1.628906 7.125 -1.578125 C 6.769531 -1.535156 6.4375 -1.515625 6.125 -1.515625 C 5.707031 -1.515625 5.300781 -1.550781 4.90625 -1.625 C 4.507812 -1.707031 4.15625 -1.835938 3.84375 -2.015625 C 3.539062 -2.203125 3.289062 -2.453125 3.09375 -2.765625 C 2.90625 -3.078125 2.800781 -3.457031 2.78125 -3.90625 Z M 2.78125 -3.90625 "/>
</g>
<g id="glyph-0-4">
<path d="M 1.46875 -12.40625 L 1.46875 0 L 3.5 0 L 3.5 -5.515625 C 3.5 -6.316406 3.578125 -7.023438 3.734375 -7.640625 C 3.898438 -8.253906 4.160156 -8.773438 4.515625 -9.203125 C 4.867188 -9.640625 5.332031 -9.96875 5.90625 -10.1875 C 6.476562 -10.414062 7.171875 -10.53125 7.984375 -10.53125 L 7.984375 -12.703125 C 6.890625 -12.734375 5.976562 -12.503906 5.25 -12.015625 C 4.53125 -11.535156 3.925781 -10.796875 3.4375 -9.796875 L 3.390625 -9.796875 L 3.390625 -12.40625 Z M 1.46875 -12.40625 "/>
</g>
<g id="glyph-0-5">
<path d="M 4.890625 4.734375 L 6.453125 4.734375 C 5.316406 2.890625 4.503906 1.066406 4.015625 -0.734375 C 3.523438 -2.546875 3.28125 -4.460938 3.28125 -6.484375 C 3.28125 -8.453125 3.519531 -10.332031 4 -12.125 C 4.488281 -13.914062 5.304688 -15.722656 6.453125 -17.546875 L 4.890625 -17.546875 C 3.648438 -15.898438 2.710938 -14.113281 2.078125 -12.1875 C 1.441406 -10.269531 1.125 -8.367188 1.125 -6.484375 C 1.125 -5.421875 1.210938 -4.410156 1.390625 -3.453125 C 1.566406 -2.492188 1.816406 -1.554688 2.140625 -0.640625 C 2.472656 0.261719 2.867188 1.160156 3.328125 2.046875 C 3.796875 2.941406 4.316406 3.835938 4.890625 4.734375 Z M 4.890625 4.734375 "/>
</g>
<g id="glyph-0-6">
<path d="M 1.875 -17.140625 L 1.875 0 L 13.21875 0 L 13.21875 -1.921875 L 4.15625 -1.921875 L 4.15625 -17.140625 Z M 1.875 -17.140625 "/>
</g>
<g id="glyph-0-7">
<path d="M 1.921875 -17.140625 L 1.921875 0 L 4.078125 0 L 4.078125 -14.25 L 4.125 -14.25 L 9.484375 0 L 11.421875 0 L 16.78125 -14.25 L 16.828125 -14.25 L 16.828125 0 L 18.984375 0 L 18.984375 -17.140625 L 15.859375 -17.140625 L 10.4375 -2.734375 L 5.046875 -17.140625 Z M 1.921875 -17.140625 "/>
</g>
<g id="glyph-0-8">
<path d="M -0.21875 4.734375 L 1.3125 4.734375 C 2.5625 3.078125 3.503906 1.296875 4.140625 -0.609375 C 4.773438 -2.523438 5.09375 -4.425781 5.09375 -6.3125 C 5.09375 -7.363281 5.003906 -8.367188 4.828125 -9.328125 C 4.648438 -10.296875 4.394531 -11.238281 4.0625 -12.15625 C 3.738281 -13.070312 3.34375 -13.972656 2.875 -14.859375 C 2.414062 -15.753906 1.894531 -16.648438 1.3125 -17.546875 L -0.21875 -17.546875 C 0.902344 -15.703125 1.707031 -13.875 2.1875 -12.0625 C 2.675781 -10.25 2.921875 -8.332031 2.921875 -6.3125 C 2.921875 -4.363281 2.679688 -2.488281 2.203125 -0.6875 C 1.722656 1.113281 0.914062 2.921875 -0.21875 4.734375 Z M -0.21875 4.734375 "/>
</g>
<g id="glyph-0-9">
<path d="M 11.78125 -12.125 L 13.9375 -12.125 C 13.90625 -13.0625 13.722656 -13.867188 13.390625 -14.546875 C 13.066406 -15.234375 12.617188 -15.800781 12.046875 -16.25 C 11.484375 -16.695312 10.828125 -17.023438 10.078125 -17.234375 C 9.328125 -17.441406 8.507812 -17.546875 7.625 -17.546875 C 6.84375 -17.546875 6.078125 -17.441406 5.328125 -17.234375 C 4.585938 -17.035156 3.925781 -16.734375 3.34375 -16.328125 C 2.757812 -15.921875 2.289062 -15.398438 1.9375 -14.765625 C 1.59375 -14.140625 1.421875 -13.394531 1.421875 -12.53125 C 1.421875 -11.75 1.578125 -11.097656 1.890625 -10.578125 C 2.203125 -10.054688 2.613281 -9.628906 3.125 -9.296875 C 3.644531 -8.972656 4.234375 -8.707031 4.890625 -8.5 C 5.546875 -8.300781 6.210938 -8.125 6.890625 -7.96875 C 7.578125 -7.820312 8.25 -7.675781 8.90625 -7.53125 C 9.5625 -7.382812 10.148438 -7.195312 10.671875 -6.96875 C 11.191406 -6.738281 11.609375 -6.4375 11.921875 -6.0625 C 12.234375 -5.695312 12.390625 -5.21875 12.390625 -4.625 C 12.390625 -4.007812 12.257812 -3.5 12 -3.09375 C 11.738281 -2.695312 11.398438 -2.378906 10.984375 -2.140625 C 10.578125 -1.910156 10.113281 -1.75 9.59375 -1.65625 C 9.070312 -1.5625 8.554688 -1.515625 8.046875 -1.515625 C 7.398438 -1.515625 6.769531 -1.59375 6.15625 -1.75 C 5.550781 -1.90625 5.019531 -2.148438 4.5625 -2.484375 C 4.113281 -2.828125 3.75 -3.257812 3.46875 -3.78125 C 3.1875 -4.300781 3.046875 -4.921875 3.046875 -5.640625 L 0.890625 -5.640625 C 0.890625 -4.597656 1.078125 -3.695312 1.453125 -2.9375 C 1.828125 -2.175781 2.335938 -1.550781 2.984375 -1.0625 C 3.628906 -0.582031 4.378906 -0.222656 5.234375 0.015625 C 6.097656 0.265625 7.007812 0.390625 7.96875 0.390625 C 8.75 0.390625 9.535156 0.296875 10.328125 0.109375 C 11.117188 -0.0742188 11.832031 -0.375 12.46875 -0.78125 C 13.113281 -1.1875 13.640625 -1.710938 14.046875 -2.359375 C 14.453125 -3.015625 14.65625 -3.796875 14.65625 -4.703125 C 14.65625 -5.546875 14.5 -6.25 14.1875 -6.8125 C 13.882812 -7.375 13.472656 -7.835938 12.953125 -8.203125 C 12.429688 -8.578125 11.84375 -8.867188 11.1875 -9.078125 C 10.53125 -9.296875 9.859375 -9.484375 9.171875 -9.640625 C 8.492188 -9.804688 7.828125 -9.957031 7.171875 -10.09375 C 6.515625 -10.226562 5.925781 -10.398438 5.40625 -10.609375 C 4.882812 -10.816406 4.46875 -11.082031 4.15625 -11.40625 C 3.851562 -11.738281 3.703125 -12.171875 3.703125 -12.703125 C 3.703125 -13.253906 3.804688 -13.71875 4.015625 -14.09375 C 4.234375 -14.46875 4.519531 -14.769531 4.875 -15 C 5.238281 -15.226562 5.648438 -15.390625 6.109375 -15.484375 C 6.578125 -15.578125 7.050781 -15.625 7.53125 -15.625 C 8.71875 -15.625 9.691406 -15.347656 10.453125 -14.796875 C 11.210938 -14.242188 11.65625 -13.351562 11.78125 -12.125 Z M 11.78125 -12.125 "/>
</g>
<g id="glyph-0-10">
<path d="M 6.40625 1.65625 C 6.164062 2.257812 5.929688 2.769531 5.703125 3.1875 C 5.472656 3.601562 5.21875 3.941406 4.9375 4.203125 C 4.65625 4.472656 4.34375 4.664062 4 4.78125 C 3.65625 4.90625 3.257812 4.96875 2.8125 4.96875 C 2.570312 4.96875 2.332031 4.953125 2.09375 4.921875 C 1.851562 4.890625 1.617188 4.832031 1.390625 4.75 L 1.390625 2.875 C 1.566406 2.957031 1.769531 3.023438 2 3.078125 C 2.238281 3.140625 2.4375 3.171875 2.59375 3.171875 C 3.007812 3.171875 3.359375 3.066406 3.640625 2.859375 C 3.921875 2.660156 4.128906 2.378906 4.265625 2.015625 L 5.109375 -0.078125 L 0.1875 -12.40625 L 2.5 -12.40625 L 6.125 -2.25 L 6.171875 -2.25 L 9.640625 -12.40625 L 11.8125 -12.40625 Z M 6.40625 1.65625 "/>
</g>
<g id="glyph-0-11">
<path d="M 1.53125 -12.40625 L 1.53125 0 L 3.578125 0 L 3.578125 -7.734375 C 3.578125 -7.972656 3.632812 -8.269531 3.75 -8.625 C 3.875 -8.988281 4.066406 -9.335938 4.328125 -9.671875 C 4.597656 -10.003906 4.941406 -10.289062 5.359375 -10.53125 C 5.785156 -10.769531 6.296875 -10.890625 6.890625 -10.890625 C 7.347656 -10.890625 7.722656 -10.820312 8.015625 -10.6875 C 8.316406 -10.550781 8.554688 -10.359375 8.734375 -10.109375 C 8.910156 -9.867188 9.035156 -9.578125 9.109375 -9.234375 C 9.179688 -8.898438 9.21875 -8.535156 9.21875 -8.140625 L 9.21875 0 L 11.25 0 L 11.25 -7.734375 C 11.25 -8.691406 11.535156 -9.457031 12.109375 -10.03125 C 12.691406 -10.601562 13.488281 -10.890625 14.5 -10.890625 C 14.988281 -10.890625 15.390625 -10.816406 15.703125 -10.671875 C 16.015625 -10.535156 16.257812 -10.34375 16.4375 -10.09375 C 16.613281 -9.84375 16.734375 -9.550781 16.796875 -9.21875 C 16.859375 -8.882812 16.890625 -8.523438 16.890625 -8.140625 L 16.890625 0 L 18.9375 0 L 18.9375 -9.09375 C 18.9375 -9.738281 18.835938 -10.285156 18.640625 -10.734375 C 18.441406 -11.191406 18.160156 -11.5625 17.796875 -11.84375 C 17.429688 -12.132812 17 -12.347656 16.5 -12.484375 C 16 -12.628906 15.4375 -12.703125 14.8125 -12.703125 C 13.988281 -12.703125 13.238281 -12.515625 12.5625 -12.140625 C 11.882812 -11.773438 11.335938 -11.253906 10.921875 -10.578125 C 10.660156 -11.347656 10.21875 -11.894531 9.59375 -12.21875 C 8.96875 -12.539062 8.273438 -12.703125 7.515625 -12.703125 C 5.765625 -12.703125 4.425781 -11.992188 3.5 -10.578125 L 3.453125 -10.578125 L 3.453125 -12.40625 Z M 1.53125 -12.40625 "/>
</g>
<g id="glyph-0-12">
<path d="M 1.609375 -17.140625 L 1.609375 0 L 3.640625 0 L 3.640625 -1.65625 L 3.703125 -1.65625 C 3.921875 -1.289062 4.191406 -0.984375 4.515625 -0.734375 C 4.847656 -0.484375 5.195312 -0.285156 5.5625 -0.140625 C 5.9375 0.00390625 6.3125 0.109375 6.6875 0.171875 C 7.0625 0.234375 7.398438 0.265625 7.703125 0.265625 C 8.648438 0.265625 9.476562 0.0976562 10.1875 -0.234375 C 10.894531 -0.578125 11.484375 -1.039062 11.953125 -1.625 C 12.429688 -2.207031 12.785156 -2.890625 13.015625 -3.671875 C 13.253906 -4.453125 13.375 -5.285156 13.375 -6.171875 C 13.375 -7.046875 13.25 -7.875 13 -8.65625 C 12.757812 -9.445312 12.40625 -10.140625 11.9375 -10.734375 C 11.46875 -11.335938 10.875 -11.816406 10.15625 -12.171875 C 9.445312 -12.523438 8.613281 -12.703125 7.65625 -12.703125 C 6.789062 -12.703125 6 -12.546875 5.28125 -12.234375 C 4.5625 -11.921875 4.035156 -11.421875 3.703125 -10.734375 L 3.640625 -10.734375 L 3.640625 -17.140625 Z M 11.203125 -6.3125 C 11.203125 -5.707031 11.140625 -5.113281 11.015625 -4.53125 C 10.890625 -3.957031 10.679688 -3.445312 10.390625 -3 C 10.097656 -2.550781 9.71875 -2.191406 9.25 -1.921875 C 8.78125 -1.648438 8.191406 -1.515625 7.484375 -1.515625 C 6.785156 -1.515625 6.1875 -1.644531 5.6875 -1.90625 C 5.1875 -2.164062 4.78125 -2.507812 4.46875 -2.9375 C 4.164062 -3.375 3.941406 -3.875 3.796875 -4.4375 C 3.648438 -5.007812 3.578125 -5.601562 3.578125 -6.21875 C 3.578125 -6.789062 3.644531 -7.359375 3.78125 -7.921875 C 3.914062 -8.484375 4.132812 -8.984375 4.4375 -9.421875 C 4.738281 -9.859375 5.128906 -10.210938 5.609375 -10.484375 C 6.097656 -10.753906 6.6875 -10.890625 7.375 -10.890625 C 8.03125 -10.890625 8.597656 -10.757812 9.078125 -10.5 C 9.566406 -10.25 9.96875 -9.90625 10.28125 -9.46875 C 10.59375 -9.039062 10.820312 -8.550781 10.96875 -8 C 11.125 -7.445312 11.203125 -6.882812 11.203125 -6.3125 Z M 11.203125 -6.3125 "/>
</g>
<g id="glyph-0-13">
<path d="M 3.03125 -6.1875 C 3.03125 -6.9375 3.128906 -7.601562 3.328125 -8.1875 C 3.523438 -8.78125 3.800781 -9.273438 4.15625 -9.671875 C 4.507812 -10.066406 4.921875 -10.367188 5.390625 -10.578125 C 5.859375 -10.785156 6.359375 -10.890625 6.890625 -10.890625 C 7.421875 -10.890625 7.921875 -10.785156 8.390625 -10.578125 C 8.859375 -10.367188 9.269531 -10.066406 9.625 -9.671875 C 9.976562 -9.273438 10.253906 -8.78125 10.453125 -8.1875 C 10.648438 -7.601562 10.75 -6.9375 10.75 -6.1875 C 10.75 -5.4375 10.648438 -4.769531 10.453125 -4.1875 C 10.253906 -3.601562 9.976562 -3.113281 9.625 -2.71875 C 9.269531 -2.332031 8.859375 -2.035156 8.390625 -1.828125 C 7.921875 -1.617188 7.421875 -1.515625 6.890625 -1.515625 C 6.359375 -1.515625 5.859375 -1.617188 5.390625 -1.828125 C 4.921875 -2.035156 4.507812 -2.332031 4.15625 -2.71875 C 3.800781 -3.113281 3.523438 -3.601562 3.328125 -4.1875 C 3.128906 -4.769531 3.03125 -5.4375 3.03125 -6.1875 Z M 0.859375 -6.1875 C 0.859375 -5.28125 0.984375 -4.429688 1.234375 -3.640625 C 1.492188 -2.859375 1.878906 -2.175781 2.390625 -1.59375 C 2.910156 -1.007812 3.546875 -0.550781 4.296875 -0.21875 C 5.046875 0.101562 5.910156 0.265625 6.890625 0.265625 C 7.878906 0.265625 8.742188 0.101562 9.484375 -0.21875 C 10.234375 -0.550781 10.863281 -1.007812 11.375 -1.59375 C 11.882812 -2.175781 12.265625 -2.859375 12.515625 -3.640625 C 12.773438 -4.429688 12.90625 -5.28125 12.90625 -6.1875 C 12.90625 -7.101562 12.773438 -7.957031 12.515625 -8.75 C 12.265625 -9.539062 11.882812 -10.226562 11.375 -10.8125 C 10.863281 -11.394531 10.234375 -11.851562 9.484375 -12.1875 C 8.742188 -12.53125 7.878906 -12.703125 6.890625 -12.703125 C 5.910156 -12.703125 5.046875 -12.53125 4.296875 -12.1875 C 3.546875 -11.851562 2.910156 -11.394531 2.390625 -10.8125 C 1.878906 -10.226562 1.492188 -9.539062 1.234375 -8.75 C 0.984375 -7.957031 0.859375 -7.101562 0.859375 -6.1875 Z M 0.859375 -6.1875 "/>
</g>
<g id="glyph-0-14">
<path d="M 1.65625 -17.140625 L 1.65625 0 L 3.703125 0 L 3.703125 -17.140625 Z M 1.65625 -17.140625 "/>
</g>
<g id="glyph-0-15">
<path d="M 3.703125 -14.640625 L 3.703125 -17.140625 L 1.65625 -17.140625 L 1.65625 -14.640625 Z M 1.65625 -12.40625 L 1.65625 0 L 3.703125 0 L 3.703125 -12.40625 Z M 1.65625 -12.40625 "/>
</g>
<g id="glyph-0-16">
<path d="M 9.953125 -8.421875 L 12.078125 -8.421875 C 11.992188 -9.160156 11.800781 -9.796875 11.5 -10.328125 C 11.195312 -10.867188 10.804688 -11.3125 10.328125 -11.65625 C 9.859375 -12.007812 9.316406 -12.269531 8.703125 -12.4375 C 8.085938 -12.613281 7.425781 -12.703125 6.71875 -12.703125 C 5.738281 -12.703125 4.878906 -12.523438 4.140625 -12.171875 C 3.410156 -11.828125 2.800781 -11.351562 2.3125 -10.75 C 1.820312 -10.15625 1.457031 -9.453125 1.21875 -8.640625 C 0.976562 -7.835938 0.859375 -6.972656 0.859375 -6.046875 C 0.859375 -5.117188 0.984375 -4.265625 1.234375 -3.484375 C 1.484375 -2.710938 1.851562 -2.046875 2.34375 -1.484375 C 2.832031 -0.921875 3.4375 -0.488281 4.15625 -0.1875 C 4.882812 0.113281 5.722656 0.265625 6.671875 0.265625 C 8.253906 0.265625 9.503906 -0.148438 10.421875 -0.984375 C 11.347656 -1.816406 11.921875 -3 12.140625 -4.53125 L 10.0625 -4.53125 C 9.925781 -3.570312 9.570312 -2.828125 9 -2.296875 C 8.4375 -1.773438 7.648438 -1.515625 6.640625 -1.515625 C 6.003906 -1.515625 5.453125 -1.640625 4.984375 -1.890625 C 4.523438 -2.148438 4.148438 -2.488281 3.859375 -2.90625 C 3.578125 -3.332031 3.367188 -3.816406 3.234375 -4.359375 C 3.097656 -4.910156 3.03125 -5.472656 3.03125 -6.046875 C 3.03125 -6.671875 3.09375 -7.273438 3.21875 -7.859375 C 3.34375 -8.441406 3.550781 -8.957031 3.84375 -9.40625 C 4.144531 -9.851562 4.539062 -10.210938 5.03125 -10.484375 C 5.53125 -10.753906 6.148438 -10.890625 6.890625 -10.890625 C 7.753906 -10.890625 8.441406 -10.671875 8.953125 -10.234375 C 9.460938 -9.804688 9.796875 -9.203125 9.953125 -8.421875 Z M 9.953125 -8.421875 "/>
</g>
<g id="glyph-0-17">
<path d="M 1.53125 -17.140625 L 1.53125 0 L 3.578125 0 L 3.578125 -7.015625 C 3.578125 -7.566406 3.648438 -8.078125 3.796875 -8.546875 C 3.953125 -9.023438 4.179688 -9.4375 4.484375 -9.78125 C 4.785156 -10.132812 5.164062 -10.40625 5.625 -10.59375 C 6.082031 -10.789062 6.625 -10.890625 7.25 -10.890625 C 8.03125 -10.890625 8.644531 -10.664062 9.09375 -10.21875 C 9.539062 -9.769531 9.765625 -9.164062 9.765625 -8.40625 L 9.765625 0 L 11.8125 0 L 11.8125 -8.15625 C 11.8125 -8.832031 11.742188 -9.445312 11.609375 -10 C 11.472656 -10.550781 11.234375 -11.023438 10.890625 -11.421875 C 10.554688 -11.828125 10.117188 -12.140625 9.578125 -12.359375 C 9.035156 -12.585938 8.351562 -12.703125 7.53125 -12.703125 C 7.164062 -12.703125 6.785156 -12.660156 6.390625 -12.578125 C 6.003906 -12.492188 5.628906 -12.367188 5.265625 -12.203125 C 4.910156 -12.035156 4.585938 -11.816406 4.296875 -11.546875 C 4.003906 -11.285156 3.78125 -10.960938 3.625 -10.578125 L 3.578125 -10.578125 L 3.578125 -17.140625 Z M 1.53125 -17.140625 "/>
</g>
<g id="glyph-0-18">
<path d="M 1.65625 -17.140625 L 1.65625 0 L 3.703125 0 L 3.703125 -4.703125 L 5.609375 -6.484375 L 9.859375 0 L 12.453125 0 L 7.171875 -7.890625 L 12.09375 -12.40625 L 9.359375 -12.40625 L 3.703125 -6.984375 L 3.703125 -17.140625 Z M 1.65625 -17.140625 "/>
</g>
<g id="glyph-0-19">
<path d="M 1.84375 -17.140625 L 1.84375 0 L 4.015625 0 L 4.015625 -13.75 L 4.0625 -13.75 L 13.015625 0 L 15.5 0 L 15.5 -17.140625 L 13.34375 -17.140625 L 13.34375 -3.234375 L 13.296875 -3.234375 L 4.265625 -17.140625 Z M 1.84375 -17.140625 "/>
</g>
<g id="glyph-0-20">
<path d="M 12.53125 -0.046875 C 12.175781 0.160156 11.6875 0.265625 11.0625 0.265625 C 10.53125 0.265625 10.109375 0.117188 9.796875 -0.171875 C 9.492188 -0.472656 9.34375 -0.957031 9.34375 -1.625 C 8.78125 -0.957031 8.125 -0.472656 7.375 -0.171875 C 6.632812 0.117188 5.832031 0.265625 4.96875 0.265625 C 4.40625 0.265625 3.867188 0.195312 3.359375 0.0625 C 2.859375 -0.0585938 2.425781 -0.257812 2.0625 -0.53125 C 1.695312 -0.800781 1.40625 -1.15625 1.1875 -1.59375 C 0.96875 -2.03125 0.859375 -2.5625 0.859375 -3.1875 C 0.859375 -3.894531 0.976562 -4.472656 1.21875 -4.921875 C 1.457031 -5.367188 1.773438 -5.734375 2.171875 -6.015625 C 2.566406 -6.296875 3.015625 -6.503906 3.515625 -6.640625 C 4.015625 -6.785156 4.53125 -6.910156 5.0625 -7.015625 C 5.625 -7.117188 6.15625 -7.195312 6.65625 -7.25 C 7.164062 -7.3125 7.609375 -7.394531 7.984375 -7.5 C 8.367188 -7.601562 8.671875 -7.753906 8.890625 -7.953125 C 9.117188 -8.148438 9.234375 -8.441406 9.234375 -8.828125 C 9.234375 -9.273438 9.148438 -9.632812 8.984375 -9.90625 C 8.816406 -10.175781 8.597656 -10.382812 8.328125 -10.53125 C 8.066406 -10.675781 7.769531 -10.769531 7.4375 -10.8125 C 7.113281 -10.863281 6.796875 -10.890625 6.484375 -10.890625 C 5.617188 -10.890625 4.894531 -10.722656 4.3125 -10.390625 C 3.738281 -10.066406 3.429688 -9.453125 3.390625 -8.546875 L 1.34375 -8.546875 C 1.375 -9.316406 1.53125 -9.960938 1.8125 -10.484375 C 2.101562 -11.015625 2.488281 -11.441406 2.96875 -11.765625 C 3.457031 -12.097656 4.007812 -12.335938 4.625 -12.484375 C 5.238281 -12.628906 5.894531 -12.703125 6.59375 -12.703125 C 7.15625 -12.703125 7.710938 -12.660156 8.265625 -12.578125 C 8.816406 -12.492188 9.316406 -12.328125 9.765625 -12.078125 C 10.210938 -11.835938 10.570312 -11.492188 10.84375 -11.046875 C 11.113281 -10.597656 11.25 -10.007812 11.25 -9.28125 L 11.25 -2.90625 C 11.25 -2.425781 11.273438 -2.070312 11.328125 -1.84375 C 11.390625 -1.625 11.582031 -1.515625 11.90625 -1.515625 C 12.082031 -1.515625 12.289062 -1.550781 12.53125 -1.625 Z M 9.21875 -6.40625 C 8.957031 -6.21875 8.617188 -6.078125 8.203125 -5.984375 C 7.785156 -5.898438 7.347656 -5.828125 6.890625 -5.765625 C 6.441406 -5.710938 5.984375 -5.648438 5.515625 -5.578125 C 5.054688 -5.503906 4.640625 -5.382812 4.265625 -5.21875 C 3.898438 -5.0625 3.601562 -4.835938 3.375 -4.546875 C 3.144531 -4.253906 3.03125 -3.851562 3.03125 -3.34375 C 3.03125 -3 3.097656 -2.710938 3.234375 -2.484375 C 3.367188 -2.253906 3.539062 -2.066406 3.75 -1.921875 C 3.96875 -1.773438 4.21875 -1.671875 4.5 -1.609375 C 4.789062 -1.546875 5.097656 -1.515625 5.421875 -1.515625 C 6.097656 -1.515625 6.675781 -1.601562 7.15625 -1.78125 C 7.632812 -1.96875 8.023438 -2.203125 8.328125 -2.484375 C 8.628906 -2.765625 8.851562 -3.066406 9 -3.390625 C 9.144531 -3.722656 9.21875 -4.03125 9.21875 -4.3125 Z M 9.21875 -6.40625 "/>
</g>
<g id="glyph-0-21">
<path d="M 12.234375 -1.0625 L 12.234375 -12.40625 L 10.3125 -12.40625 L 10.3125 -10.625 L 10.296875 -10.625 C 9.929688 -11.3125 9.421875 -11.828125 8.765625 -12.171875 C 8.109375 -12.523438 7.382812 -12.703125 6.59375 -12.703125 C 5.519531 -12.703125 4.613281 -12.492188 3.875 -12.078125 C 3.144531 -11.671875 2.554688 -11.148438 2.109375 -10.515625 C 1.660156 -9.890625 1.335938 -9.1875 1.140625 -8.40625 C 0.953125 -7.632812 0.859375 -6.878906 0.859375 -6.140625 C 0.859375 -5.296875 0.972656 -4.492188 1.203125 -3.734375 C 1.441406 -2.972656 1.789062 -2.304688 2.25 -1.734375 C 2.71875 -1.171875 3.296875 -0.71875 3.984375 -0.375 C 4.671875 -0.0390625 5.476562 0.125 6.40625 0.125 C 7.207031 0.125 7.960938 -0.0507812 8.671875 -0.40625 C 9.390625 -0.769531 9.921875 -1.335938 10.265625 -2.109375 L 10.3125 -2.109375 L 10.3125 -1.296875 C 10.3125 -0.609375 10.242188 0.0195312 10.109375 0.59375 C 9.972656 1.175781 9.753906 1.671875 9.453125 2.078125 C 9.148438 2.484375 8.765625 2.800781 8.296875 3.03125 C 7.835938 3.269531 7.269531 3.390625 6.59375 3.390625 C 6.257812 3.390625 5.90625 3.351562 5.53125 3.28125 C 5.164062 3.207031 4.828125 3.085938 4.515625 2.921875 C 4.210938 2.765625 3.953125 2.554688 3.734375 2.296875 C 3.515625 2.046875 3.398438 1.738281 3.390625 1.375 L 1.34375 1.375 C 1.375 2.039062 1.550781 2.601562 1.875 3.0625 C 2.195312 3.53125 2.597656 3.90625 3.078125 4.1875 C 3.566406 4.476562 4.109375 4.6875 4.703125 4.8125 C 5.304688 4.945312 5.898438 5.015625 6.484375 5.015625 C 8.460938 5.015625 9.914062 4.507812 10.84375 3.5 C 11.769531 2.488281 12.234375 0.964844 12.234375 -1.0625 Z M 6.53125 -1.65625 C 5.851562 -1.65625 5.289062 -1.796875 4.84375 -2.078125 C 4.394531 -2.359375 4.035156 -2.722656 3.765625 -3.171875 C 3.492188 -3.628906 3.300781 -4.140625 3.1875 -4.703125 C 3.082031 -5.265625 3.03125 -5.828125 3.03125 -6.390625 C 3.03125 -6.972656 3.097656 -7.535156 3.234375 -8.078125 C 3.367188 -8.628906 3.582031 -9.113281 3.875 -9.53125 C 4.164062 -9.945312 4.546875 -10.273438 5.015625 -10.515625 C 5.484375 -10.765625 6.046875 -10.890625 6.703125 -10.890625 C 7.335938 -10.890625 7.878906 -10.757812 8.328125 -10.5 C 8.773438 -10.25 9.140625 -9.910156 9.421875 -9.484375 C 9.703125 -9.066406 9.90625 -8.59375 10.03125 -8.0625 C 10.15625 -7.53125 10.21875 -6.992188 10.21875 -6.453125 C 10.21875 -5.878906 10.148438 -5.300781 10.015625 -4.71875 C 9.878906 -4.144531 9.664062 -3.628906 9.375 -3.171875 C 9.09375 -2.722656 8.710938 -2.359375 8.234375 -2.078125 C 7.765625 -1.796875 7.195312 -1.65625 6.53125 -1.65625 Z M 6.53125 -1.65625 "/>
</g>
<g id="glyph-0-22">
<path d="M 1.53125 -12.40625 L 1.53125 0 L 3.578125 0 L 3.578125 -7.015625 C 3.578125 -7.566406 3.648438 -8.078125 3.796875 -8.546875 C 3.953125 -9.023438 4.179688 -9.4375 4.484375 -9.78125 C 4.785156 -10.132812 5.164062 -10.40625 5.625 -10.59375 C 6.082031 -10.789062 6.625 -10.890625 7.25 -10.890625 C 8.03125 -10.890625 8.644531 -10.664062 9.09375 -10.21875 C 9.539062 -9.769531 9.765625 -9.164062 9.765625 -8.40625 L 9.765625 0 L 11.8125 0 L 11.8125 -8.15625 C 11.8125 -8.832031 11.742188 -9.445312 11.609375 -10 C 11.472656 -10.550781 11.234375 -11.023438 10.890625 -11.421875 C 10.554688 -11.828125 10.117188 -12.140625 9.578125 -12.359375 C 9.035156 -12.585938 8.351562 -12.703125 7.53125 -12.703125 C 5.695312 -12.703125 4.351562 -11.945312 3.5 -10.4375 L 3.453125 -10.4375 L 3.453125 -12.40625 Z M 1.53125 -12.40625 "/>
</g>
<g id="glyph-0-23">
<path d="M 4.375 -12.40625 L 4.375 -16.125 L 2.328125 -16.125 L 2.328125 -12.40625 L 0.21875 -12.40625 L 0.21875 -10.609375 L 2.328125 -10.609375 L 2.328125 -2.71875 C 2.328125 -2.132812 2.378906 -1.664062 2.484375 -1.3125 C 2.597656 -0.96875 2.769531 -0.695312 3 -0.5 C 3.238281 -0.3125 3.546875 -0.179688 3.921875 -0.109375 C 4.296875 -0.0351562 4.75 0 5.28125 0 L 6.84375 0 L 6.84375 -1.796875 L 5.90625 -1.796875 C 5.582031 -1.796875 5.320312 -1.804688 5.125 -1.828125 C 4.925781 -1.859375 4.769531 -1.910156 4.65625 -1.984375 C 4.539062 -2.066406 4.460938 -2.179688 4.421875 -2.328125 C 4.390625 -2.472656 4.375 -2.664062 4.375 -2.90625 L 4.375 -10.609375 L 6.84375 -10.609375 L 6.84375 -12.40625 Z M 4.375 -12.40625 "/>
</g>
<g id="glyph-0-24">
<path d="M 4.875 -6.53125 L 0.21875 0 L 2.6875 0 L 6.140625 -5.140625 L 9.59375 0 L 12.21875 0 L 7.421875 -6.703125 L 11.6875 -12.40625 L 9.234375 -12.40625 L 6.140625 -8.0625 L 3.171875 -12.40625 L 0.546875 -12.40625 Z M 4.875 -6.53125 "/>
</g>
<g id="glyph-0-25">
<path d="M 1.609375 -12.40625 L 1.609375 4.734375 L 3.640625 4.734375 L 3.640625 -1.65625 L 3.703125 -1.65625 C 3.921875 -1.289062 4.191406 -0.984375 4.515625 -0.734375 C 4.847656 -0.484375 5.195312 -0.285156 5.5625 -0.140625 C 5.9375 0.00390625 6.3125 0.109375 6.6875 0.171875 C 7.0625 0.234375 7.398438 0.265625 7.703125 0.265625 C 8.648438 0.265625 9.476562 0.0976562 10.1875 -0.234375 C 10.894531 -0.578125 11.484375 -1.039062 11.953125 -1.625 C 12.429688 -2.207031 12.785156 -2.890625 13.015625 -3.671875 C 13.253906 -4.453125 13.375 -5.285156 13.375 -6.171875 C 13.375 -7.046875 13.25 -7.875 13 -8.65625 C 12.757812 -9.445312 12.40625 -10.140625 11.9375 -10.734375 C 11.46875 -11.335938 10.875 -11.816406 10.15625 -12.171875 C 9.445312 -12.523438 8.613281 -12.703125 7.65625 -12.703125 C 6.789062 -12.703125 6 -12.546875 5.28125 -12.234375 C 4.5625 -11.921875 4.035156 -11.421875 3.703125 -10.734375 L 3.640625 -10.734375 L 3.640625 -12.40625 Z M 11.203125 -6.3125 C 11.203125 -5.707031 11.140625 -5.113281 11.015625 -4.53125 C 10.890625 -3.957031 10.679688 -3.445312 10.390625 -3 C 10.097656 -2.550781 9.71875 -2.191406 9.25 -1.921875 C 8.78125 -1.648438 8.191406 -1.515625 7.484375 -1.515625 C 6.785156 -1.515625 6.1875 -1.644531 5.6875 -1.90625 C 5.1875 -2.164062 4.78125 -2.507812 4.46875 -2.9375 C 4.164062 -3.375 3.941406 -3.875 3.796875 -4.4375 C 3.648438 -5.007812 3.578125 -5.601562 3.578125 -6.21875 C 3.578125 -6.789062 3.644531 -7.359375 3.78125 -7.921875 C 3.914062 -8.484375 4.132812 -8.984375 4.4375 -9.421875 C 4.738281 -9.859375 5.128906 -10.210938 5.609375 -10.484375 C 6.097656 -10.753906 6.6875 -10.890625 7.375 -10.890625 C 8.03125 -10.890625 8.597656 -10.757812 9.078125 -10.5 C 9.566406 -10.25 9.96875 -9.90625 10.28125 -9.46875 C 10.59375 -9.039062 10.820312 -8.550781 10.96875 -8 C 11.125 -7.445312 11.203125 -6.882812 11.203125 -6.3125 Z M 11.203125 -6.3125 "/>
</g>
<g id="glyph-0-26">
<path d="M 1.203125 -7.625 L 1.203125 -5.71875 L 8.140625 -5.71875 L 8.140625 -7.625 Z M 1.203125 -7.625 "/>
</g>
<g id="glyph-0-27">
<path d="M 3.03125 -6.09375 C 3.03125 -6.707031 3.09375 -7.300781 3.21875 -7.875 C 3.34375 -8.445312 3.546875 -8.957031 3.828125 -9.40625 C 4.117188 -9.851562 4.503906 -10.210938 4.984375 -10.484375 C 5.472656 -10.753906 6.0625 -10.890625 6.75 -10.890625 C 7.445312 -10.890625 8.039062 -10.757812 8.53125 -10.5 C 9.03125 -10.238281 9.4375 -9.890625 9.75 -9.453125 C 10.0625 -9.023438 10.289062 -8.523438 10.4375 -7.953125 C 10.582031 -7.390625 10.65625 -6.800781 10.65625 -6.1875 C 10.65625 -5.613281 10.585938 -5.046875 10.453125 -4.484375 C 10.316406 -3.921875 10.097656 -3.421875 9.796875 -2.984375 C 9.492188 -2.546875 9.097656 -2.191406 8.609375 -1.921875 C 8.128906 -1.648438 7.546875 -1.515625 6.859375 -1.515625 C 6.203125 -1.515625 5.628906 -1.640625 5.140625 -1.890625 C 4.660156 -2.148438 4.265625 -2.492188 3.953125 -2.921875 C 3.640625 -3.359375 3.40625 -3.851562 3.25 -4.40625 C 3.101562 -4.957031 3.03125 -5.519531 3.03125 -6.09375 Z M 12.625 0 L 12.625 -17.140625 L 10.578125 -17.140625 L 10.578125 -10.75 L 10.53125 -10.75 C 10.3125 -11.113281 10.035156 -11.421875 9.703125 -11.671875 C 9.378906 -11.921875 9.03125 -12.117188 8.65625 -12.265625 C 8.289062 -12.421875 7.925781 -12.53125 7.5625 -12.59375 C 7.195312 -12.664062 6.851562 -12.703125 6.53125 -12.703125 C 5.582031 -12.703125 4.75 -12.523438 4.03125 -12.171875 C 3.320312 -11.828125 2.734375 -11.363281 2.265625 -10.78125 C 1.796875 -10.195312 1.441406 -9.515625 1.203125 -8.734375 C 0.972656 -7.953125 0.859375 -7.117188 0.859375 -6.234375 C 0.859375 -5.359375 0.976562 -4.523438 1.21875 -3.734375 C 1.457031 -2.953125 1.8125 -2.265625 2.28125 -1.671875 C 2.757812 -1.085938 3.351562 -0.617188 4.0625 -0.265625 C 4.78125 0.0859375 5.617188 0.265625 6.578125 0.265625 C 7.441406 0.265625 8.234375 0.113281 8.953125 -0.1875 C 9.671875 -0.488281 10.195312 -0.988281 10.53125 -1.6875 L 10.578125 -1.6875 L 10.578125 0 Z M 12.625 0 "/>
</g>
<g id="glyph-1-0">
</g>
</g>
<clipPath id="clip-0">
<path clip-rule="nonzero" d="M 551 152 L 648.117188 152 L 648.117188 282 L 551 282 Z M 551 152 "/>
</clipPath>
<clipPath id="clip-1">
<path clip-rule="nonzero" d="M 314 0 L 350 0 L 350 437.824219 L 314 437.824219 Z M 314 0 "/>
</clipPath>
</defs>
<rect x="-64.8117" y="-43.78242" width="777.7404" height="525.38904" fill="rgb(100%, 100%, 100%)" fill-opacity="1"/>
<path fill-rule="nonzero" fill="rgb(46.273804%, 83.921814%, 100%)" fill-opacity="1" stroke-width="2" stroke-linecap="butt" stroke-linejoin="miter" stroke="rgb(57.255554%, 57.255554%, 57.255554%)" stroke-opacity="1" stroke-miterlimit="4" d="M 0.00089375 -0.00111875 L 0.00089375 49.369975 L 53.414956 81.194194 L 106.832925 49.369975 L 106.832925 -0.00111875 Z M 0.00089375 -0.00111875 " transform="matrix(0, 1, 1, 0, 66.0519, 163.4952)"/>
<path fill-rule="nonzero" fill="rgb(46.273804%, 83.921814%, 100%)" fill-opacity="1" d="M 87.847656 163.496094 L 38.480469 163.496094 L 6.65625 216.910156 L 38.480469 270.328125 L 87.847656 270.328125 Z M 87.847656 163.496094 "/>
<path fill="none" stroke-width="2" stroke-linecap="butt" stroke-linejoin="miter" stroke="rgb(57.255554%, 57.255554%, 57.255554%)" stroke-opacity="1" stroke-miterlimit="4" d="M 0.00089375 -0.00075625 L 0.00089375 49.366431 L 53.414956 81.194556 L 106.832925 49.366431 L 106.832925 -0.00075625 Z M 0.00089375 -0.00075625 " transform="matrix(0, 1, -1, 0, 87.8469, 163.4952)"/>
<path fill-rule="nonzero" fill="rgb(46.273804%, 83.921814%, 100%)" fill-opacity="1" d="M 39.332031 268.582031 L 114.105469 268.582031 L 114.105469 165.242188 L 39.332031 165.242188 Z M 39.332031 268.582031 "/>
<path fill-rule="nonzero" fill="rgb(100%, 83.137512%, 47.450256%)" fill-opacity="1" d="M 369.226562 137.714844 L 419.328125 137.714844 L 419.328125 30.878906 L 369.226562 30.878906 Z M 369.226562 137.714844 "/>
<path fill="none" stroke-width="2" stroke-linecap="butt" stroke-linejoin="miter" stroke="rgb(57.255554%, 57.255554%, 57.255554%)" stroke-opacity="1" stroke-miterlimit="4" d="M 0.0004625 -0.00159375 L 50.102025 -0.00159375 L 50.102025 106.834344 L 0.0004625 106.834344 Z M 0.0004625 -0.00159375 " transform="matrix(1, 0, 0, 1, 369.2261, 30.8805)"/>
<path fill-rule="nonzero" fill="rgb(46.273804%, 83.921814%, 100%)" fill-opacity="1" d="M 239.863281 137.714844 L 289.960938 137.714844 L 289.960938 30.878906 L 239.863281 30.878906 Z M 239.863281 137.714844 "/>
<path fill="none" stroke-width="2" stroke-linecap="butt" stroke-linejoin="miter" stroke="rgb(57.255554%, 57.255554%, 57.255554%)" stroke-opacity="1" stroke-miterlimit="4" d="M 0.00108125 -0.00159375 L 50.098737 -0.00159375 L 50.098737 106.834344 L 0.00108125 106.834344 Z M 0.00108125 -0.00159375 " transform="matrix(1, 0, 0, 1, 239.8622, 30.8805)"/>
<path fill-rule="nonzero" fill="rgb(100%, 100%, 100%)" fill-opacity="1" d="M 27.285156 250.074219 L 126.613281 250.074219 L 126.613281 183.746094 L 27.285156 183.746094 Z M 27.285156 250.074219 "/>
<path fill="none" stroke-width="1" stroke-linecap="butt" stroke-linejoin="miter" stroke="rgb(0%, 0%, 0%)" stroke-opacity="1" stroke-miterlimit="4" d="M -0.00024375 -0.00130625 L 99.327881 -0.00130625 L 99.327881 66.326819 L -0.00024375 66.326819 Z M -0.00024375 -0.00130625 " transform="matrix(1, 0, 0, 1, 27.2854, 183.7474)"/>
<g fill="rgb(0%, 0%, 0%)" fill-opacity="1">
<use xlink:href="#glyph-0-0" x="32.2854" y="211.4634"/>
<use xlink:href="#glyph-0-1" x="50.5014" y="211.4634"/>
<use xlink:href="#glyph-0-2" x="63.8454" y="211.4634"/>
<use xlink:href="#glyph-0-3" x="76.7334" y="211.4634"/>
<use xlink:href="#glyph-0-3" x="88.7334" y="211.4634"/>
<use xlink:href="#glyph-0-2" x="100.7334" y="211.4634"/>
<use xlink:href="#glyph-0-4" x="113.6214" y="211.4634"/>
</g>
<g fill="rgb(0%, 0%, 0%)" fill-opacity="1">
<use xlink:href="#glyph-1-0" x="121.6134" y="211.4634"/>
</g>
<g fill="rgb(0%, 0%, 0%)" fill-opacity="1">
<use xlink:href="#glyph-0-5" x="46.9374" y="240.4634"/>
<use xlink:href="#glyph-0-6" x="53.1534" y="240.4634"/>
<use xlink:href="#glyph-0-6" x="66.4974" y="240.4634"/>
<use xlink:href="#glyph-0-7" x="79.8414" y="240.4634"/>
<use xlink:href="#glyph-0-8" x="100.7454" y="240.4634"/>
</g>
<path fill-rule="nonzero" fill="rgb(100%, 83.137512%, 47.450256%)" fill-opacity="1" d="M 562.472656 163.496094 L 611.84375 163.496094 L 643.664062 216.910156 L 611.84375 270.328125 L 562.472656 270.328125 Z M 562.472656 163.496094 "/>
<g clip-path="url(#clip-0)">
<path fill="none" stroke-width="2" stroke-linecap="butt" stroke-linejoin="miter" stroke="rgb(57.255554%, 57.255554%, 57.255554%)" stroke-opacity="1" stroke-miterlimit="4" d="M 0.00089375 -0.00134375 L 0.00089375 49.36975 L 53.414956 81.193969 L 106.832925 49.36975 L 106.832925 -0.00134375 Z M 0.00089375 -0.00134375 " transform="matrix(0, 1, 1, 0, 562.474, 163.4952)"/>
</g>
<path fill-rule="nonzero" fill="rgb(100%, 83.137512%, 47.450256%)" fill-opacity="1" d="M 584.269531 163.496094 L 534.898438 163.496094 L 503.074219 216.910156 L 534.898438 270.328125 L 584.269531 270.328125 Z M 584.269531 163.496094 "/>
<path fill="none" stroke-width="2" stroke-linecap="butt" stroke-linejoin="miter" stroke="rgb(57.255554%, 57.255554%, 57.255554%)" stroke-opacity="1" stroke-miterlimit="4" d="M 0.00089375 -0.00053125 L 0.00089375 49.366656 L 53.414956 81.190875 L 106.832925 49.366656 L 106.832925 -0.00053125 Z M 0.00089375 -0.00053125 " transform="matrix(0, 1, -1, 0, 584.269, 163.4952)"/>
<path fill-rule="nonzero" fill="rgb(100%, 83.137512%, 47.450256%)" fill-opacity="1" d="M 535.753906 268.582031 L 610.527344 268.582031 L 610.527344 165.242188 L 535.753906 165.242188 Z M 535.753906 268.582031 "/>
<path fill-rule="nonzero" fill="rgb(100%, 100%, 100%)" fill-opacity="1" d="M 518.582031 250.074219 L 628.160156 250.074219 L 628.160156 183.746094 L 518.582031 183.746094 Z M 518.582031 250.074219 "/>
<path fill="none" stroke-width="1" stroke-linecap="butt" stroke-linejoin="miter" stroke="rgb(0%, 0%, 0%)" stroke-opacity="1" stroke-miterlimit="4" d="M -0.00096875 -0.00130625 L 109.577156 -0.00130625 L 109.577156 66.326819 L -0.00096875 66.326819 Z M -0.00096875 -0.00130625 " transform="matrix(1, 0, 0, 1, 518.583, 183.7474)"/>
<g fill="rgb(0%, 0%, 0%)" fill-opacity="1">
<use xlink:href="#glyph-0-9" x="523.583" y="211.4634"/>
<use xlink:href="#glyph-0-10" x="539.135" y="211.4634"/>
<use xlink:href="#glyph-0-11" x="551.135" y="211.4634"/>
<use xlink:href="#glyph-0-12" x="571.607" y="211.4634"/>
<use xlink:href="#glyph-0-13" x="585.839" y="211.4634"/>
<use xlink:href="#glyph-0-14" x="599.615" y="211.4634"/>
<use xlink:href="#glyph-0-15" x="604.943" y="211.4634"/>
<use xlink:href="#glyph-0-16" x="610.271" y="211.4634"/>
</g>
<g fill="rgb(0%, 0%, 0%)" fill-opacity="1">
<use xlink:href="#glyph-1-0" x="623.159" y="211.4634"/>
</g>
<g fill="rgb(0%, 0%, 0%)" fill-opacity="1">
<use xlink:href="#glyph-0-16" x="530.699" y="240.4634"/>
<use xlink:href="#glyph-0-17" x="543.587" y="240.4634"/>
<use xlink:href="#glyph-0-2" x="556.931" y="240.4634"/>
<use xlink:href="#glyph-0-16" x="569.819" y="240.4634"/>
<use xlink:href="#glyph-0-18" x="582.707" y="240.4634"/>
<use xlink:href="#glyph-0-2" x="595.163" y="240.4634"/>
<use xlink:href="#glyph-0-4" x="608.051" y="240.4634"/>
</g>
<path fill-rule="nonzero" fill="rgb(0%, 0%, 0%)" fill-opacity="1" d="M 296.929688 78.726562 L 339.816406 69.648438 L 330.871094 87.699219 L 351.046875 83.707031 L 350.058594 78.703125 C 349.976562 78.273438 350.457031 77.960938 350.816406 78.199219 L 362.257812 86.214844 L 350.832031 94.21875 C 350.46875 94.460938 349.992188 94.140625 350.082031 93.710938 L 351.066406 88.816406 L 318.484375 98.945312 L 328.414062 78.992188 L 296.929688 90.746094 Z M 296.929688 78.726562 "/>
<path fill-rule="nonzero" fill="rgb(100%, 83.137512%, 47.450256%)" fill-opacity="1" d="M 365.214844 397.734375 L 415.3125 397.734375 L 415.3125 290.902344 L 365.214844 290.902344 Z M 365.214844 397.734375 "/>
<path fill="none" stroke-width="2" stroke-linecap="butt" stroke-linejoin="miter" stroke="rgb(57.255554%, 57.255554%, 57.255554%)" stroke-opacity="1" stroke-miterlimit="4" d="M 0.00094375 -0.00045625 L 50.0986 -0.00045625 L 50.0986 106.831575 L 0.00094375 106.831575 Z M 0.00094375 -0.00045625 " transform="matrix(1, 0, 0, 1, 365.2139, 290.9028)"/>
<path fill-rule="nonzero" fill="rgb(46.273804%, 83.921814%, 100%)" fill-opacity="1" d="M 235.851562 397.457031 L 285.949219 397.457031 L 285.949219 290.625 L 235.851562 290.625 Z M 235.851562 397.457031 "/>
<path fill="none" stroke-width="2" stroke-linecap="butt" stroke-linejoin="miter" stroke="rgb(57.255554%, 57.255554%, 57.255554%)" stroke-opacity="1" stroke-miterlimit="4" d="M 0.0014625 0.0019 L 50.099119 0.0019 L 50.099119 106.833931 L 0.0014625 106.833931 Z M 0.0014625 0.0019 " transform="matrix(1, 0, 0, 1, 235.8501, 290.6231)"/>
<path fill-rule="nonzero" fill="rgb(0%, 0%, 0%)" fill-opacity="1" d="M 358.246094 338.75 L 315.359375 329.671875 L 324.304688 347.71875 L 304.128906 343.730469 L 305.117188 338.722656 C 305.199219 338.296875 304.722656 337.980469 304.359375 338.222656 L 292.917969 346.238281 L 304.34375 354.242188 C 304.707031 354.484375 305.183594 354.164062 305.097656 353.734375 L 304.109375 348.839844 L 336.695312 358.96875 L 326.761719 339.015625 L 358.246094 350.769531 Z M 358.246094 338.75 "/>
<g fill="rgb(0%, 0%, 0%)" fill-opacity="1">
<use xlink:href="#glyph-0-19" x="152.0903" y="23.0878"/>
<use xlink:href="#glyph-0-2" x="169.4183" y="23.0878"/>
<use xlink:href="#glyph-0-1" x="182.3063" y="23.0878"/>
<use xlink:href="#glyph-0-4" x="195.6503" y="23.0878"/>
<use xlink:href="#glyph-0-20" x="203.6423" y="23.0878"/>
<use xlink:href="#glyph-0-14" x="216.5303" y="23.0878"/>
</g>
<g fill="rgb(0%, 0%, 0%)" fill-opacity="1">
<use xlink:href="#glyph-1-0" x="221.8583" y="23.0878"/>
</g>
<g fill="rgb(0%, 0%, 0%)" fill-opacity="1">
<use xlink:href="#glyph-0-21" x="154.9703" y="52.0878"/>
<use xlink:href="#glyph-0-1" x="168.7463" y="52.0878"/>
<use xlink:href="#glyph-0-2" x="182.0903" y="52.0878"/>
<use xlink:href="#glyph-0-3" x="194.9783" y="52.0878"/>
<use xlink:href="#glyph-0-3" x="206.9783" y="52.0878"/>
</g>
<g fill="rgb(0%, 0%, 0%)" fill-opacity="1">
<use xlink:href="#glyph-0-9" x="421.758" y="23.0878"/>
<use xlink:href="#glyph-0-10" x="437.31" y="23.0878"/>
<use xlink:href="#glyph-0-11" x="449.31" y="23.0878"/>
<use xlink:href="#glyph-0-12" x="469.782" y="23.0878"/>
<use xlink:href="#glyph-0-13" x="484.014" y="23.0878"/>
<use xlink:href="#glyph-0-14" x="497.79" y="23.0878"/>
<use xlink:href="#glyph-0-15" x="503.118" y="23.0878"/>
<use xlink:href="#glyph-0-16" x="508.446" y="23.0878"/>
</g>
<g fill="rgb(0%, 0%, 0%)" fill-opacity="1">
<use xlink:href="#glyph-1-0" x="521.334" y="23.0878"/>
</g>
<g fill="rgb(0%, 0%, 0%)" fill-opacity="1">
<use xlink:href="#glyph-0-21" x="439.542" y="52.0878"/>
<use xlink:href="#glyph-0-1" x="453.318" y="52.0878"/>
<use xlink:href="#glyph-0-2" x="466.662" y="52.0878"/>
<use xlink:href="#glyph-0-3" x="479.55" y="52.0878"/>
<use xlink:href="#glyph-0-3" x="491.55" y="52.0878"/>
</g>
<g fill="rgb(0%, 0%, 0%)" fill-opacity="1">
<use xlink:href="#glyph-0-19" x="143.6328" y="399.839"/>
<use xlink:href="#glyph-0-2" x="160.9608" y="399.839"/>
<use xlink:href="#glyph-0-1" x="173.8488" y="399.839"/>
<use xlink:href="#glyph-0-4" x="187.1928" y="399.839"/>
<use xlink:href="#glyph-0-20" x="195.1848" y="399.839"/>
<use xlink:href="#glyph-0-14" x="208.0728" y="399.839"/>
</g>
<g fill="rgb(0%, 0%, 0%)" fill-opacity="1">
<use xlink:href="#glyph-1-0" x="213.4008" y="399.839"/>
</g>
<g fill="rgb(0%, 0%, 0%)" fill-opacity="1">
<use xlink:href="#glyph-0-16" x="92.2728" y="428.839"/>
<use xlink:href="#glyph-0-13" x="105.1608" y="428.839"/>
<use xlink:href="#glyph-0-1" x="118.9368" y="428.839"/>
<use xlink:href="#glyph-0-22" x="132.2808" y="428.839"/>
<use xlink:href="#glyph-0-23" x="145.6248" y="428.839"/>
<use xlink:href="#glyph-0-2" x="153.1848" y="428.839"/>
<use xlink:href="#glyph-0-4" x="166.0728" y="428.839"/>
</g>
<g fill="rgb(0%, 0%, 0%)" fill-opacity="1">
<use xlink:href="#glyph-0-2" x="173.6328" y="428.839"/>
<use xlink:href="#glyph-0-24" x="186.5208" y="428.839"/>
<use xlink:href="#glyph-0-20" x="198.9528" y="428.839"/>
<use xlink:href="#glyph-0-11" x="211.8408" y="428.839"/>
<use xlink:href="#glyph-0-25" x="232.3128" y="428.839"/>
<use xlink:href="#glyph-0-14" x="246.5448" y="428.839"/>
<use xlink:href="#glyph-0-2" x="251.8728" y="428.839"/>
</g>
<g fill="rgb(0%, 0%, 0%)" fill-opacity="1">
<use xlink:href="#glyph-0-9" x="436.053" y="399.839"/>
<use xlink:href="#glyph-0-10" x="451.605" y="399.839"/>
<use xlink:href="#glyph-0-11" x="463.605" y="399.839"/>
<use xlink:href="#glyph-0-12" x="484.077" y="399.839"/>
<use xlink:href="#glyph-0-13" x="498.309" y="399.839"/>
<use xlink:href="#glyph-0-14" x="512.085" y="399.839"/>
<use xlink:href="#glyph-0-15" x="517.413" y="399.839"/>
<use xlink:href="#glyph-0-16" x="522.741" y="399.839"/>
</g>
<g fill="rgb(0%, 0%, 0%)" fill-opacity="1">
<use xlink:href="#glyph-1-0" x="535.629" y="399.839"/>
</g>
<g fill="rgb(0%, 0%, 0%)" fill-opacity="1">
<use xlink:href="#glyph-0-16" x="399.5969" y="428.839"/>
<use xlink:href="#glyph-0-13" x="412.4849" y="428.839"/>
<use xlink:href="#glyph-0-1" x="426.2609" y="428.839"/>
<use xlink:href="#glyph-0-22" x="439.6049" y="428.839"/>
<use xlink:href="#glyph-0-23" x="452.9489" y="428.839"/>
<use xlink:href="#glyph-0-2" x="460.5089" y="428.839"/>
<use xlink:href="#glyph-0-4" x="473.3969" y="428.839"/>
</g>
<g fill="rgb(0%, 0%, 0%)" fill-opacity="1">
<use xlink:href="#glyph-0-2" x="480.9569" y="428.839"/>
<use xlink:href="#glyph-0-24" x="493.8449" y="428.839"/>
<use xlink:href="#glyph-0-20" x="506.2769" y="428.839"/>
<use xlink:href="#glyph-0-11" x="519.1649" y="428.839"/>
<use xlink:href="#glyph-0-25" x="539.6369" y="428.839"/>
<use xlink:href="#glyph-0-14" x="553.8689" y="428.839"/>
<use xlink:href="#glyph-0-2" x="559.1969" y="428.839"/>
</g>
<path fill="none" stroke-width="5" stroke-linecap="butt" stroke-linejoin="miter" stroke="rgb(0%, 0%, 0%)" stroke-opacity="1" stroke-miterlimit="4" d="M 136.256687 0.00071875 C 112.991062 36.227281 74.369969 56.227281 20.3895 60.000719 L 17.8895 60.08275 " transform="matrix(1, 0, 0, 1, 433.298, 285.261)"/>
<path fill-rule="nonzero" fill="rgb(0%, 0%, 0%)" fill-opacity="1" d="M 453.359375 335.066406 L 433.296875 345.917969 L 454.015625 355.457031 Z M 453.359375 335.066406 "/>
<g clip-path="url(#clip-1)">
<path fill="none" stroke-width="3" stroke-linecap="butt" stroke-linejoin="miter" stroke="rgb(0%, 0%, 0%)" stroke-opacity="1" stroke-dasharray="6 6" stroke-miterlimit="4" d="M -0.000555568 0.000195697 L 425.681733 0.00139608 " transform="matrix(0.00350258, -0.999994, 0.999994, 0.00350258, 331.4334, 431.8471)"/>
</g>
<path fill-rule="nonzero" fill="rgb(100%, 100%, 100%)" fill-opacity="1" d="M 237.53125 249.574219 L 421.660156 249.574219 L 421.660156 184.246094 L 237.53125 184.246094 Z M 237.53125 249.574219 "/>
<g fill="rgb(0%, 0%, 0%)" fill-opacity="1">
<use xlink:href="#glyph-0-19" x="242.0304" y="211.4634"/>
<use xlink:href="#glyph-0-2" x="259.3584" y="211.4634"/>
<use xlink:href="#glyph-0-1" x="272.2464" y="211.4634"/>
<use xlink:href="#glyph-0-4" x="285.5904" y="211.4634"/>
<use xlink:href="#glyph-0-20" x="293.5824" y="211.4634"/>
<use xlink:href="#glyph-0-14" x="306.4704" y="211.4634"/>
<use xlink:href="#glyph-0-26" x="311.7984" y="211.4634"/>
<use xlink:href="#glyph-0-3" x="321.1344" y="211.4634"/>
<use xlink:href="#glyph-0-10" x="333.1344" y="211.4634"/>
<use xlink:href="#glyph-0-11" x="345.1344" y="211.4634"/>
<use xlink:href="#glyph-0-12" x="365.6064" y="211.4634"/>
<use xlink:href="#glyph-0-13" x="379.8384" y="211.4634"/>
<use xlink:href="#glyph-0-14" x="393.6144" y="211.4634"/>
<use xlink:href="#glyph-0-15" x="398.9424" y="211.4634"/>
<use xlink:href="#glyph-0-16" x="404.2704" y="211.4634"/>
</g>
<g fill="rgb(0%, 0%, 0%)" fill-opacity="1">
<use xlink:href="#glyph-1-0" x="417.1584" y="211.4634"/>
</g>
<g fill="rgb(0%, 0%, 0%)" fill-opacity="1">
<use xlink:href="#glyph-0-12" x="278.6904" y="240.4634"/>
<use xlink:href="#glyph-0-13" x="292.9224" y="240.4634"/>
<use xlink:href="#glyph-0-1" x="306.6984" y="240.4634"/>
<use xlink:href="#glyph-0-22" x="320.0424" y="240.4634"/>
<use xlink:href="#glyph-0-27" x="333.3864" y="240.4634"/>
<use xlink:href="#glyph-0-20" x="347.6184" y="240.4634"/>
<use xlink:href="#glyph-0-4" x="360.5064" y="240.4634"/>
<use xlink:href="#glyph-0-10" x="368.4984" y="240.4634"/>
</g>
<path fill="none" stroke-width="5" stroke-linecap="butt" stroke-linejoin="miter" stroke="rgb(0%, 0%, 0%)" stroke-opacity="1" stroke-miterlimit="4" d="M -0.0013 60.658931 C 23.264325 24.432369 61.885419 4.432369 115.865887 0.658931 L 118.365887 0.5769 " transform="matrix(1, 0, 0, 1, 84.3138, 85.6106)"/>
<path fill-rule="nonzero" fill="rgb(0%, 0%, 0%)" fill-opacity="1" d="M 200.507812 96.464844 L 220.570312 85.613281 L 199.851562 76.074219 Z M 200.507812 96.464844 "/>
<path fill="none" stroke-width="5" stroke-linecap="butt" stroke-linejoin="miter" stroke="rgb(0%, 0%, 0%)" stroke-opacity="1" stroke-miterlimit="4" d="M 125.376906 46.443038 L 123.857375 44.458663 C 96.755812 14.650069 55.470656 -0.166337 0.00190625 0.00163125 " transform="matrix(1, 0, 0, 1, 438.627, 82.7679)"/>
<path fill-rule="nonzero" fill="rgb(0%, 0%, 0%)" fill-opacity="1" d="M 554.382812 133.425781 L 574.882812 143.425781 L 570.585938 121.027344 Z M 554.382812 133.425781 "/>
<path fill="none" stroke-width="5" stroke-linecap="butt" stroke-linejoin="miter" stroke="rgb(0%, 0%, 0%)" stroke-opacity="1" stroke-miterlimit="4" d="M 10.880375 14.216612 L 12.399906 16.200987 C 39.497562 46.009581 80.782719 60.825987 136.255375 60.658019 " transform="matrix(1, 0, 0, 1, 81.604, 288.1037)"/>
<path fill-rule="nonzero" fill="rgb(0%, 0%, 0%)" fill-opacity="1" d="M 102.101562 298.105469 L 81.605469 288.105469 L 85.902344 310.503906 Z M 102.101562 298.105469 "/>
</svg>
